<?xml version="1.0" standalone="no"?>
<!DOCTYPE svg PUBLIC "-//W3C//DTD SVG 1.1//EN" "http://www.w3.org/Graphics/SVG/1.1/DTD/svg11.dtd">
<svg xmlns="http://www.w3.org/2000/svg">
<defs >
<font id="RedHatDisplay" horiz-adv-x="526" ><font-face
    font-family="Red Hat Display Medium"
    units-per-em="1000"
    panose-1="2 1 3 3 4 2 1 6 3 3"
    ascent="1018"
    descent="-305"
    alphabetic="0" />
<glyph unicode=" " horiz-adv-x="209" />
<glyph unicode="!" horiz-adv-x="216" d="M68 200L56 705H159L147 200H68ZM108 -7Q82 -7 63 11T44 56Q44 82 63 100T108 119Q134 119 152 101T171 56Q171 30 153 12T108 -7Z" />
<glyph unicode="&quot;" horiz-adv-x="366" d="M72 467L59 702H157L144 467H72ZM223 467L210 702H308L295 467H223Z" />
<glyph unicode="#" horiz-adv-x="711" d="M75 0L136 209H30V283H156L195 417H80V491H215L275 700H366L306 491H485L545 700H635L575 491H681V417H555L516 283H631V209H495L435 0H345L405 209H226L166 0H75ZM247 283H426L464 417H285L247 283Z" />
<glyph unicode="$" horiz-adv-x="581" d="M257 -67V20Q186 26 124 54T16 131L72 199Q151 118 257 102V313L214 322Q115 342 73 382T30 496Q30 552 58 594T138 659T257 683V767H314V681Q373 674 430 653T537 598L491 522Q445 552 401 570T314 596V394L356 387Q463
364 508 324T553 212Q553 156 523 114T440 47T314 19V-67H257ZM257 404V600Q197 599 160 573T123 504Q123 476 134 457T171 427T241 406L257 404ZM314 99Q377 103 417 131T457 205Q457 233 446 251T407 281T329 302L314 305V99Z" />
<glyph unicode="%" horiz-adv-x="761" d="M178 345Q109 345 67 395T25 525Q25 606 67 655T178 705Q246 705 288 656T331 525Q330 445 288 395T178 345ZM178 402Q219 402 243 435T267 525Q267 582 243 615T178 649Q137 649 114 616T89 525Q90 469 113 436T178 402ZM142
0L536 700H615L220 0H142ZM584 -5Q515 -5 473 45T431 175Q431 256 473 305T584 355Q652 355 694 306T737 175Q736 95 694 45T584 -5ZM584 52Q625 52 649 85T673 175Q673 232 649 265T584 299Q543 299 520 266T495 175Q496 119 519 86T584 52Z" />
<glyph unicode="&amp;" horiz-adv-x="666" d="M263 -11Q192 -11 139 14T55 84T25 188Q25 231 39 264T85 326T172 386Q139 429 125 465T111 541Q111 590 134 628T198 689T291 711Q340 711 378 692T439 638T462 558Q462 510 436 472T355 401L305 370Q341 330 384
288T471 205Q494 242 509 286T534 381L623 366Q609 302 588 247T537 147Q567 121 595 99T651 55L591 -16Q565 4 537 26T480 73Q437 32 382 11T263 -11ZM254 429L305 459Q338 478 354 501T370 555Q370 589 347 611T288 634Q251 634 227 609T203 543Q203 516 214
491T254 429ZM269 71Q312 71 349 86T415 130Q363 178 313 227T222 325Q183 303 160 283T128 242T119 194Q119 138 160 105T269 71Z" />
<glyph unicode="&apos;" horiz-adv-x="216" d="M72 467L59 702H157L144 467H72Z" />
<glyph unicode="(" horiz-adv-x="398" d="M313 -215Q190 -143 125 -24T59 248Q59 401 124 520T313 711L367 647Q264 585 209 482T154 248Q154 118 209 15T367 -150L313 -215Z" />
<glyph unicode=")" horiz-adv-x="398" d="M85 715Q208 643 273 524T339 252Q339 99 274 -20T85 -211L31 -147Q134 -85 189 18T244 252Q244 382 189 485T31 650L85 715Z" />
<glyph unicode="*" horiz-adv-x="458" d="M195 331L197 460L84 390L47 447L167 517L49 587L87 644L196 575L195 700H264L262 576L371 644L409 587L292 517L412 447L373 390L262 459L264 331H195Z" />
<glyph unicode="+" horiz-adv-x="600" d="M260 139V317H94V395H260V574H340V395H506V317H340V139H260Z" />
<glyph unicode="," horiz-adv-x="250" d="M27 -143L89 90H195L103 -143H27Z" />
<glyph unicode="-" horiz-adv-x="452" d="M46 239V326H406V239H46Z" />
<glyph unicode="." horiz-adv-x="250" d="M125 -7Q99 -7 81 11T62 56Q62 82 80 100T125 119Q151 119 169 101T188 56Q188 30 170 12T125 -7Z" />
<glyph unicode="/" horiz-adv-x="480" d="M-63 -205L353 700H451L35 -205H-63Z" />
<glyph unicode="0" horiz-adv-x="671" d="M336 -11Q248 -11 182 34T79 161T41 350Q41 457 78 538T182 665T336 711Q423 711 489 666T592 539T630 350Q630 243 593 162T489 35T336 -11ZM336 76Q396 76 440 109T508 205T532 350Q532 434 508 495T440 590T336 624Q276
624 232 591T163 496T139 350Q139 267 163 205T231 110T336 76Z" />
<glyph unicode="1" horiz-adv-x="314" d="M151 0V597L25 544V632L187 700H250V0H151Z" />
<glyph unicode="2" horiz-adv-x="555" d="M305 0V70L589 372Q618 402 634 426T656 471T663 517Q663 564 625 595T529 626Q481 626 439 607T346 541L292 607Q348 659 407 685T531 711Q598 711 649 687T728 621T757 523Q757 488 748 459T717 397T655 322L427 82L771
83V0H305Z" />
<glyph unicode="3" horiz-adv-x="596" d="M290 -11Q215 -11 150 15T36 92L101 154Q143 110 186 92T289 73Q336 73 372 89T429 133T449 198Q449 232 432 258T385 299T315 314H230V395H308Q361 395 393 426T425 507Q425 540 407 567T358 609T286 625Q233 625 193
607T109 542L44 604Q92 656 155 683T288 711Q356 711 408 686T491 617T522 516Q522 461 486 418T390 357Q461 342 503 298T545 193Q545 134 513 88T422 16T290 -11Z" />
<glyph unicode="4" horiz-adv-x="641" d="M424 0V178H27V257L412 700H523V262H608V178H523V0H424ZM146 262H424V582L146 262Z" />
<glyph unicode="5" horiz-adv-x="582" d="M536 -11Q396 -11 293 84L352 150Q397 109 441 91T539 72Q587 72 622 90T677 142T697 219Q697 282 653 321T537 360Q501 360 466 351T393 321L325 342L341 700H757V617H425L415 401Q454 421 489 428T563 436Q633 436 684
410T765 335T794 224Q794 154 762 102T671 19T536 -11Z" />
<glyph unicode="6" horiz-adv-x="622" d="M335 -10Q251 -10 187 33T87 152T51 330Q51 445 91 530T203 663T373 711Q421 711 468 697T551 655L500 584Q469 604 436 614T365 624Q297 624 249 590T174 490T147 333Q184 382 236 409T344 437Q413 437 466 410T549 333T579
221Q579 155 547 103T460 20T335 -10ZM330 360Q278 360 232 336T151 270Q160 211 184 167T247 98T332 73Q376 73 410 92T463 144T483 219Q483 260 464 292T410 342T330 360Z" />
<glyph unicode="7" horiz-adv-x="574" d="M360 0L694 615H286V700H798V627L472 0H360Z" />
<glyph unicode="8" horiz-adv-x="622" d="M306 -11Q231 -11 174 15T83 87T50 192Q50 233 69 268T124 329T205 366Q147 384 111 427T75 523Q75 577 105 619T188 686T306 711Q372 711 424 687T507 620T537 523Q537 470 501 427T407 366Q476 348 519 301T562 192Q562
133 530 87T439 15T306 -11ZM306 403Q345 403 376 418T425 459T443 517Q443 550 425 576T376 617T306 632Q267 632 236 618T187 577T169 518Q169 485 187 459T236 418T306 403ZM306 68Q352 68 388 84T445 130T466 197Q466 234 445 263T388 309T306 326Q260 326
224 309T167 263T146 197Q146 160 167 131T224 85T306 68Z" />
<glyph unicode="9" horiz-adv-x="622" d="M287 711Q371 711 435 668T535 548T571 371Q571 256 531 171T419 38T249 -10Q202 -10 154 5T71 45L122 117Q153 97 187 87T257 76Q325 76 373 111T448 211T475 367Q438 318 386 291T278 263Q209 263 156 291T73 368T43
480Q43 547 75 599T162 681T287 711ZM292 340Q344 340 390 364T471 431Q463 491 439 535T376 603T290 628Q247 628 213 609T159 557T139 482Q139 441 158 409T213 358T292 340Z" />
<glyph unicode=":" horiz-adv-x="250" d="M125 -7Q99 -7 81 11T62 56Q62 82 80 100T125 119Q151 119 169 101T188 56Q188 30 170 12T125 -7ZM125 393Q99 393 81 411T62 456Q62 482 80 500T125 519Q151 519 169 501T188 456Q188 430 170 412T125 393Z" />
<glyph unicode=";" horiz-adv-x="250" d="M134 393Q108 393 90 411T71 456Q71 482 89 500T134 519Q160 519 178 501T197 456Q197 430 179 412T134 393ZM277 -143L339 90H445L353 -143H277Z" />
<glyph unicode="&lt;" horiz-adv-x="600" d="M421 85L94 348L423 611L473 551L215 350L473 147L421 85Z" />
<glyph unicode="=" horiz-adv-x="600" d="M94 485V563H506V485H94ZM94 403V481H506V403H94Z" />
<glyph unicode="&gt;" horiz-adv-x="600" d="M179 611L506 348L177 85L127 145L385 346L127 549L179 611Z" />
<glyph unicode="?" horiz-adv-x="514" d="M184 205Q182 251 189 284T214 343T264 392L311 425Q350 453 366 476T382 529Q382 557 365 578T318 612T252 625Q205 625 164 602T94 537L15 578Q41 620 78 650T161 695T257 711Q321 711 371 688T450 624T480 532Q480
498 469 470T432 416T360 357L329 335Q294 312 280 282T269 205H184ZM227 -7Q201 -7 183 11T164 56Q164 82 182 100T227 119Q253 119 271 101T290 56Q290 30 272 12T227 -7Z" />
<glyph unicode="@" horiz-adv-x="781" d="M406 -144Q328 -144 262 -118T146 -44T70 67T42 207Q42 286 69 354T146 472T261 550T405 579Q476 579 537 556T643 491T714 393T740 273Q740 209 717 159T652 81T557 52Q488 52 459 93Q435 72 408 61T354 50Q313 50 280
70T229 124T210 202Q210 252 233 293T295 358T383 382Q441 382 480 346L485 369H557L517 171Q510 140 523 123T567 106Q600 106 626 127T667 185T682 269Q682 343 645 401T545 493T402 527Q339 527 284 503T188 436T123 335T100 211Q100 123 139 55T249 -51T408
-90Q500 -90 575 -51L597 -100Q552 -122 505 -133T406 -144ZM371 110Q412 110 444 141Q444 150 444 159T447 180L467 279Q453 299 432 309T384 320Q356 320 333 305T295 265T281 208Q281 165 306 138T371 110Z" />
<glyph unicode="A" horiz-adv-x="701" d="M1 0L290 700H414L700 0H586L505 205H192L110 0H1ZM226 292H471L349 600L226 292Z" />
<glyph unicode="B" horiz-adv-x="671" d="M71 0V700H374Q443 700 494 677T573 613T601 515Q601 464 575 425T502 363Q561 342 594 300T628 200Q628 139 598 94T514 25T387 0H71ZM176 403H368Q427 403 462 431T497 507Q497 555 462 583T368 611H176V403ZM176 89H379Q445
89 483 120T522 204Q522 256 484 287T379 319H176V89Z" />
<glyph unicode="C" horiz-adv-x="720" d="M408 -11Q330 -11 264 16T147 93T69 208T41 350Q41 426 68 491T146 606T264 683T408 711Q463 711 515 697T612 655T690 590L620 518Q581 565 525 589T408 614Q352 614 305 594T222 539T168 455T148 350Q148 294 167 246T223
162T307 106T411 86Q472 86 526 110T619 180L688 110Q653 73 609 46T513 4T408 -11Z" />
<glyph unicode="D" horiz-adv-x="727" d="M176 94H320Q375 94 422 113T504 167T559 248T579 350Q579 404 560 451T505 532T422 586T320 606H176V94ZM71 0V700H318Q397 700 464 674T581 600T659 489T687 350Q687 274 660 211T582 100T465 27T318 0H71Z" />
<glyph unicode="E" horiz-adv-x="628" d="M71 0V700H587V608H176V398H446V309H176V92H591V0H71Z" />
<glyph unicode="F" horiz-adv-x="620" d="M71 0V700H589V608H176V393H448V304H176V0H71Z" />
<glyph unicode="G" horiz-adv-x="790" d="M407 -11Q330 -11 264 17T147 94T69 209T41 350Q41 425 68 490T146 605T262 683T405 711Q488 711 562 679T687 590L615 520Q577 565 522 589T405 614Q350 614 304 594T222 539T168 455T148 350Q148 294 167 246T222 161T305
105T407 85Q469 85 519 111T602 182T641 285H408V377H751V341Q751 266 725 202T653 90T543 16T407 -11Z" />
<glyph unicode="H" horiz-adv-x="725" d="M71 0V700H176V400H548V700H653V0H548V305H176V0H71Z" />
<glyph unicode="I" horiz-adv-x="248" d="M71 0V700H176V0H71Z" />
<glyph unicode="J" horiz-adv-x="617" d="M283 -11Q186 -11 117 38T17 179L113 217Q138 150 180 118T283 85Q361 85 407 135T454 269V700H559V267Q559 183 525 121T429 24T283 -11Z" />
<glyph unicode="K" horiz-adv-x="650" d="M71 0V700H176V376L515 700H648L284 361L659 0H515L176 332V0H71Z" />
<glyph unicode="L" horiz-adv-x="614" d="M71 0V700H176V93H579V0H71Z" />
<glyph unicode="M" horiz-adv-x="861" d="M71 0V700H212L431 252L650 700H790V0H691V572L430 50L169 572V0H71Z" />
<glyph unicode="N" horiz-adv-x="735" d="M71 0V700H173L564 180V700H663V0H571L171 536V0H71Z" />
<glyph unicode="O" horiz-adv-x="810" d="M405 -11Q329 -11 263 16T147 93T69 208T41 350Q41 426 68 491T146 606T263 683T405 711Q481 711 547 684T664 607T742 492T770 350Q770 274 742 209T664 94T548 17T405 -11ZM406 86Q460 86 506 106T588 161T643 245T663
350Q663 407 643 455T588 538T507 594T406 614Q351 614 304 594T222 539T168 455T148 351Q148 294 167 246T222 162T304 106T406 86Z" />
<glyph unicode="P" horiz-adv-x="661" d="M71 0V700H395Q464 700 515 674T595 600T624 491Q624 429 595 382T515 309T395 282H176V0H71ZM176 371H384Q446 371 482 403T519 490Q519 544 483 576T384 608H176V371Z" />
<glyph unicode="Q" horiz-adv-x="810" d="M632 -23L584 35Q545 14 500 2T406 -11Q329 -11 263 16T146 93T69 208T41 350Q41 426 68 491T146 606T262 683T406 711Q482 711 548 684T664 607T742 492T770 350Q770 273 740 205T658 88L730 0L632 -23ZM406 86Q437 86
465 93T519 114L429 223L528 247L593 168Q626 203 644 250T663 350Q663 407 643 455T588 538T507 594T406 614Q351 614 304 594T222 539T168 455T148 350Q148 294 167 246T222 162T304 106T406 86Z" />
<glyph unicode="R" horiz-adv-x="659" d="M71 0V700H388Q458 700 510 674T592 602T622 493Q622 424 583 374T478 302L634 0H518L373 287H176V0H71ZM176 375H380Q442 375 479 406T517 492Q517 544 480 576T380 608H176V375Z" />
<glyph unicode="S" horiz-adv-x="613" d="M308 -10Q224 -10 146 23T8 116L72 190Q129 134 188 107T313 80Q364 80 402 94T462 136T483 197Q483 244 450 269T341 307L224 326Q128 343 81 388T33 508Q33 568 65 613T155 684T291 709Q367 709 440 685T573 614L515
534Q402 620 286 620Q240 620 206 607T153 571T134 516Q134 473 163 451T259 418L372 399Q483 381 535 334T587 205Q587 141 552 93T454 17T308 -10Z" />
<glyph unicode="T" horiz-adv-x="631" d="M263 0V607H17V700H614V607H368V0H263Z" />
<glyph unicode="U" horiz-adv-x="713" d="M356 -11Q265 -11 198 27T95 134T59 299V700H164V299Q164 234 187 186T254 112T356 86Q416 86 459 112T525 186T549 299V700H654V299Q654 204 618 135T514 27T356 -11Z" />
<glyph unicode="V" horiz-adv-x="701" d="M287 0L1 700H114L351 104L592 700H700L410 0H287Z" />
<glyph unicode="W" horiz-adv-x="908" d="M184 0L31 700H139L248 165L406 700H506L664 166L774 700H877L724 0H616L455 550L293 0H184Z" />
<glyph unicode="X" horiz-adv-x="663" d="M1 0L269 362L16 700H143L332 442L520 700H642L392 363L663 0H537L330 284L122 0H1Z" />
<glyph unicode="Y" horiz-adv-x="666" d="M281 0V278L-1 700H121L336 371L551 700H668L386 276V0H281Z" />
<glyph unicode="Z" horiz-adv-x="609" d="M23 0V73L443 608H27V700H581V627L159 92H587V0H23Z" />
<glyph unicode="[" horiz-adv-x="366" d="M57 -209V700H328V621H152V-130H328V-209H57Z" />
<glyph unicode="\" horiz-adv-x="486" d="M446 -205L30 700H133L549 -205H446Z" />
<glyph unicode="]" horiz-adv-x="366" d="M309 700V-209H38V-130H214V621H38V700H309Z" />
<glyph unicode="^" horiz-adv-x="555" d="M52 350L235 700H320L503 350H418L277 620L137 350H52Z" />
<glyph unicode="_" horiz-adv-x="487" d="M-1 -153V-80H488V-153H-1Z" />
<glyph unicode="`" horiz-adv-x="600" d="M283 603L155 725H277L367 603H283Z" />
<glyph unicode="a" horiz-adv-x="532" d="M220 -9Q165 -9 123 10T57 65T33 146Q33 218 88 259T239 301Q314 301 378 272V326Q378 381 347 408T254 435Q219 435 181 425T96 392L59 467Q117 494 167 506T268 519Q367 519 421 472T476 338V0H378V44Q344 17 305 4T220
-9ZM129 148Q129 111 160 88T243 65Q283 65 316 77T378 114V200Q349 217 318 224T247 232Q192 232 161 210T129 148Z" />
<glyph unicode="b" horiz-adv-x="607" d="M59 0V700L159 719V461Q223 517 314 517Q386 517 444 482T537 388T571 255Q571 181 537 122T444 27T312 -8Q270 -8 231 5T158 44V0H59ZM301 79Q350 79 388 102T450 164T473 254Q473 304 450 344T389 407T301 430Q258 430
221 414T159 369V139Q184 111 221 95T301 79Z" />
<glyph unicode="c" horiz-adv-x="521" d="M298 -9Q225 -9 165 26T71 121T36 255Q36 329 71 388T165 483T298 519Q356 519 409 497T502 435L440 366Q411 398 375 414T300 430Q254 430 217 407T157 344T135 255Q135 206 157 166T217 103T302 79Q341 79 375 94T439
140L500 76Q460 35 408 13T298 -9Z" />
<glyph unicode="d" horiz-adv-x="607" d="M293 -8Q222 -8 163 27T70 121T36 255Q36 329 70 388T164 482T295 517Q337 517 376 504T448 466V700L548 719V0H449V49Q384 -8 293 -8ZM306 79Q350 79 386 95T448 141V370Q423 398 387 414T306 431Q258 431 219 408T157
346T134 256Q134 206 157 166T219 103T306 79Z" />
<glyph unicode="e" horiz-adv-x="573" d="M303 -9Q228 -9 168 26T72 121T36 255Q36 328 70 387T162 482T291 518Q362 518 417 483T504 387T537 250V222H136Q144 180 167 147T227 95T307 76Q344 76 378 87T436 121L500 58Q455 24 408 8T303 -9ZM137 297H438Q432
337 411 367T358 415T289 433Q251 433 219 416T166 369T137 297Z" />
<glyph unicode="f" horiz-adv-x="397" d="M135 0V425H17V509H135V586Q135 666 179 708T307 750Q328 750 346 748T380 740V654Q362 659 348 661T317 664Q275 664 255 645T234 583V509H380V425H234V0H135Z" />
<glyph unicode="g" horiz-adv-x="603" d="M311 -214Q255 -214 202 -201T106 -164L144 -86Q189 -109 228 -119T308 -130Q375 -130 409 -99T444 -8V50Q377 -3 291 -3Q221 -3 163 31T70 125T36 257Q36 330 70 389T163 483T295 518Q336 518 374 505T445 466V509H544V-8Q544
-107 484 -160T311 -214ZM304 83Q348 83 384 98T444 143V371Q420 399 384 415T304 431Q256 431 218 408T157 346T134 257Q134 208 156 169T217 106T304 83Z" />
<glyph unicode="h" horiz-adv-x="567" d="M59 0V700L159 722V457Q218 519 312 519Q371 519 415 494T485 424T511 320V0H411V303Q411 363 377 397T284 432Q244 432 212 415T159 366V0H59Z" />
<glyph unicode="i" horiz-adv-x="218" d="M59 0V509H159V0H59ZM109 591Q84 591 66 609T48 653Q48 679 66 696T109 714Q135 714 153 697T171 653Q171 628 153 610T109 591Z" />
<glyph unicode="j" horiz-adv-x="218" d="M109 591Q84 591 66 609T48 653Q48 679 66 696T109 714Q135 714 153 697T171 653Q171 628 153 610T109 591ZM14 -214Q-2 -214 -17 -212T-43 -207V-127Q-26 -131 -3 -131Q30 -131 44 -117T59 -69V509H159V-76Q159 -142
122 -178T14 -214Z" />
<glyph unicode="k" horiz-adv-x="524" d="M59 0V700L159 719V286L406 509H523L260 271L537 0H405L159 239V0H59Z" />
<glyph unicode="l" horiz-adv-x="218" d="M59 0V700L159 719V0H59Z" />
<glyph unicode="m" horiz-adv-x="878" d="M59 0V509H159V460Q216 519 302 519Q354 519 394 496T459 434Q491 476 534 497T631 519Q688 519 730 494T797 424T822 320V0H722V303Q722 363 691 397T605 432Q568 432 538 415T486 363Q488 353 489 342T490 320V0H391V303Q391
363 360 397T274 432Q238 432 209 417T159 370V0H59Z" />
<glyph unicode="n" horiz-adv-x="567" d="M59 0V509H159V457Q218 519 312 519Q371 519 415 494T485 424T511 320V0H411V303Q411 363 378 397T284 432Q244 432 212 415T159 366V0H59Z" />
<glyph unicode="o" horiz-adv-x="602" d="M301 -10Q227 -10 167 25T71 120T36 254Q36 328 71 388T166 483T301 519Q376 519 436 484T531 388T566 254Q566 180 531 120T436 25T301 -10ZM301 78Q348 78 386 101T446 165T468 255Q468 304 446 343T386 407T301 431Q254
431 217 407T157 344T134 255Q134 205 156 165T216 102T301 78Z" />
<glyph unicode="p" horiz-adv-x="607" d="M59 -204V509H158V460Q222 517 314 517Q386 517 444 482T537 388T571 255Q571 181 537 122T444 27T312 -8Q270 -8 231 5T159 44V-204H59ZM301 79Q350 79 388 102T450 164T473 254Q473 304 450 344T389 407T301 430Q258
430 221 414T159 369V139Q184 111 221 95T301 79Z" />
<glyph unicode="q" horiz-adv-x="607" d="M448 -204V48Q383 -8 293 -8Q222 -8 163 27T70 121T36 255Q36 329 70 388T164 482T295 517Q338 517 377 504T449 466V509H548V-204H448ZM306 79Q350 79 386 95T448 141V370Q423 398 387 414T306 431Q258 431 219 408T157
346T134 256Q134 206 157 166T219 103T306 79Z" />
<glyph unicode="r" horiz-adv-x="371" d="M59 0V509H159V444Q183 480 218 500T299 521Q330 520 350 512V422Q336 428 321 430T291 433Q247 433 213 410T159 341V0H59Z" />
<glyph unicode="s" horiz-adv-x="465" d="M234 -10Q168 -10 111 9T11 65L66 131Q105 100 146 84T231 67Q285 67 319 88T353 143Q353 171 333 187T271 209L179 222Q103 233 65 269T27 365Q27 411 52 445T122 499T227 519Q282 519 333 503T431 453L380 387Q338 415
299 428T219 441Q173 441 145 422T117 371Q117 343 136 328T201 306L293 293Q369 282 408 247T447 151Q447 105 419 69T343 11T234 -10Z" />
<glyph unicode="t" horiz-adv-x="389" d="M277 -9Q203 -9 164 25T125 126V425H17V509H125V639L224 663V509H374V425H224V149Q224 110 241 94T299 77Q320 77 336 80T372 89V5Q352 -2 326 -5T277 -9Z" />
<glyph unicode="u" horiz-adv-x="567" d="M256 -10Q197 -10 152 15T82 85T57 190V509H156V207Q156 147 190 112T283 77Q324 77 356 94T408 144V509H508V0H408V52Q349 -10 256 -10Z" />
<glyph unicode="v" horiz-adv-x="540" d="M223 0L3 509H113L272 128L431 509H537L319 0H223Z" />
<glyph unicode="w" horiz-adv-x="731" d="M154 0L12 509H109L208 135L324 509H410L526 135L625 509H719L576 0H480L366 373L251 0H154Z" />
<glyph unicode="x" horiz-adv-x="517" d="M2 0L200 261L10 509H127L258 335L389 509H502L314 262L514 0H397L256 188L115 0H2Z" />
<glyph unicode="y" horiz-adv-x="537" d="M93 -215Q77 -215 63 -214T40 -209V-121Q58 -125 84 -125Q154 -125 185 -50L207 -1L3 509H114L262 121L426 509H534L288 -63Q264 -117 237 -150T175 -199T93 -215Z" />
<glyph unicode="z" horiz-adv-x="478" d="M29 0V74L315 423H32V509H440V436L154 86H445V0H29Z" />
<glyph unicode="{" horiz-adv-x="401" d="M273 -216Q212 -216 173 -189T124 -116T136 -14L174 84Q195 137 176 173T104 209H23V286H104Q156 286 175 323T174 412L136 508Q113 565 123 611T173 684T273 711Q296 711 317 707T361 695L344 621Q328 627 313 629T282
632Q237 632 221 601T223 521L266 408Q287 352 262 307T179 248Q238 233 262 188T266 88L223 -26Q204 -74 220 -105T282 -138Q298 -138 313 -135T344 -127L361 -200Q338 -208 317 -212T273 -216Z" />
<glyph unicode="|" horiz-adv-x="298" d="M104 -205V700H194V-205H104Z" />
<glyph unicode="}" horiz-adv-x="401" d="M128 711Q189 711 228 684T277 611T265 509L227 411Q206 358 225 322T297 286H378V209H297Q245 209 226 172T227 83L265 -13Q288 -70 278 -116T228 -189T128 -216Q105 -216 84 -212T40 -200L57 -126Q73 -132 88 -134T119
-137Q164 -137 180 -106T178 -26L135 87Q114 143 139 188T222 247Q163 262 139 307T135 407L178 521Q197 569 181 600T119 633Q103 633 88 630T57 622L40 695Q63 703 84 707T128 711Z" />
<glyph unicode="~" horiz-adv-x="584" d="M108 295L36 303Q45 378 79 418T169 459Q190 459 212 453T261 432L344 391Q367 379 381 375T408 370Q466 370 478 456L548 448Q540 373 505 333T415 292Q396 292 373 298T323 318L240 359Q216 372 203 376T177 381Q119
381 108 295Z" />
<glyph unicode="&#xa0;" horiz-adv-x="209" />
<glyph unicode="&#xa1;" horiz-adv-x="216" d="M148 297L160 -208H57L69 297H148ZM108 504Q134 504 153 486T172 441Q172 415 153 397T108 378Q82 378 64 396T45 441Q45 467 63 485T108 504Z" />
<glyph unicode="&#xa2;" horiz-adv-x="522" d="M267 -116V-8Q201 0 149 36T67 129T36 255Q36 324 66 380T149 473T267 518V614H322V518Q374 514 420 493T502 435L440 366Q415 393 385 409T322 428V81Q354 84 383 99T439 140L500 76Q464 40 418 18T322 -8V-116H267ZM135
255Q135 212 152 176T199 115T267 83V426Q229 419 199 394T152 334T135 255Z" />
<glyph unicode="&#xa3;" horiz-adv-x="629" d="M463 -23Q448 -23 432 -21T399 -15L209 26Q199 28 189 29T170 31Q137 31 115 15T75 -36L1 11Q27 59 61 84T142 113Q164 131 164 167Q164 170 164 175T161 192T155 230T142 301H40V371H129Q122 411 118 433T113 469T112
491Q112 558 139 607T218 683T338 711Q432 711 492 666T575 533L490 507Q475 566 437 596T341 627Q276 627 242 592T207 493Q207 485 208 475T213 440T224 371H426V301H238Q244 266 247 245T253 212T255 194T256 184Q256 134 229 105L414 65Q425 63 435 62T455
60Q514 60 545 120L619 75Q563 -23 463 -23Z" />
<glyph unicode="&#xa4;" horiz-adv-x="684" d="M89 56L38 107L132 202Q108 234 94 275T80 362Q80 408 94 448T133 522L38 617L89 669L184 573Q217 597 257 611T342 625Q387 625 427 611T500 572L595 668L645 618L549 523Q575 490 589 449T603 362Q603 317 590
276T551 202L646 106L595 55L500 151Q467 126 427 112T342 98Q297 98 257 112T183 151L89 56ZM342 185Q388 185 426 209T486 273T509 362Q509 412 487 451T426 515T342 539Q295 539 258 515T198 452T175 362Q175 313 197 273T257 209T342 185Z" />
<glyph unicode="&#xa5;" horiz-adv-x="670" d="M284 0V133H100V195H284V263H100V325H254L5 700H127L339 371L548 700H664L419 325H570V263H389V195H570V133H389V0H284Z" />
<glyph unicode="&#xa6;" horiz-adv-x="300" d="M104 288V700H196V288H104ZM104 -205V207H196V-205H104Z" />
<glyph unicode="&#xa7;" horiz-adv-x="571" d="M280 -51Q232 -51 184 -38T92 -1L130 65Q217 17 280 17Q323 17 347 35T372 87Q372 112 356 129T303 158L195 194Q115 220 83 253T50 341Q50 388 77 421T151 470Q108 506 108 565Q108 631 158 670T292 710Q338 710
386 697T480 658L441 593Q357 641 291 641Q247 641 223 623T199 572Q199 546 215 529T269 500L376 465Q456 438 488 406T521 317Q521 271 494 237T420 187Q463 151 463 92Q463 27 413 -12T280 -51ZM347 227Q388 232 412 253T436 307Q436 336 417 355T354 388L237
425Q234 427 231 428T225 430Q183 426 159 405T135 350Q135 322 154 304T217 269L333 232Q337 231 340 230T347 227Z" />
<glyph unicode="&#xa8;" horiz-adv-x="600" d="M203 608Q178 608 161 624T144 666Q144 691 161 707T203 724Q228 724 245 708T262 666Q262 642 245 625T203 608ZM397 608Q372 608 355 624T338 666Q338 691 355 707T397 724Q422 724 439 708T456 666Q456 642 439
625T397 608Z" />
<glyph unicode="&#xa9;" horiz-adv-x="798" d="M408 164Q356 164 314 189T247 256T222 350Q222 403 246 445T313 513T408 538Q450 538 488 522T554 476L506 424Q485 447 461 457T410 468Q379 468 354 453T315 411T300 350Q300 317 314 291T354 249T411 234Q438
234 461 244T504 276L553 225Q524 195 487 180T408 164ZM399 -11Q323 -11 258 16T144 93T68 208T41 350Q41 426 68 491T144 606T258 683T399 711Q474 711 539 684T653 607T729 493T757 350Q757 274 730 208T654 93T540 17T399 -11ZM399 41Q462 41 517 65T613 131T678
230T701 350Q701 414 678 470T614 568T517 635T398 659Q336 659 282 635T186 569T122 470T98 350Q98 286 121 230T186 132T281 65T399 41Z" />
<glyph unicode="&#xaa;" horiz-adv-x="420" d="M173 313Q110 313 71 345T31 430Q31 484 73 515T188 546Q215 546 240 541T289 527V564Q289 642 199 642Q173 642 145 635T80 611L51 671Q95 692 133 701T211 711Q287 711 328 675T369 572V320H289V351Q240 313 173
313ZM191 373Q220 373 244 381T289 405V470Q269 481 246 486T195 491Q155 491 132 475T109 432Q109 405 131 389T191 373Z" />
<glyph unicode="&#xab;" horiz-adv-x="631" d="M264 0L26 255L264 509H368L136 257L371 0H264ZM488 0L250 255L488 509H592L360 257L595 0H488Z" />
<glyph unicode="&#xac;" horiz-adv-x="587" d="M449 0V248H64V326H529V0H449Z" />
<glyph unicode="&#xad;" horiz-adv-x="459" d="M46 239V326H406V239H46Z" />
<glyph unicode="&#xae;" horiz-adv-x="488" d="M244 309Q187 309 142 336T69 409T42 512Q42 570 69 616T142 689T244 716Q300 716 346 689T419 616T446 512Q446 456 419 410T346 336T244 309ZM244 347Q291 347 327 368T383 427T404 512Q404 560 384 597T327 656T244
677Q198 677 162 656T105 598T84 513Q84 466 104 428T161 369T244 347ZM175 419V607H254Q283 607 300 592T318 549Q318 533 309 519T284 497L329 419H286L246 489H215V419H175ZM247 576H215V518H246Q278 518 278 547Q278 561 271 568T247 576Z" />
<glyph unicode="&#xaf;" horiz-adv-x="600" d="M151 622V689H449V622H151Z" />
<glyph unicode="&#xb0;" horiz-adv-x="403" d="M202 419Q161 419 128 439T75 492T55 565Q55 606 74 638T127 691T202 711Q243 711 276 691T328 639T348 565Q348 526 329 493T276 439T202 419ZM202 478Q237 478 263 503T289 565Q289 601 263 627T202 653Q166 653
141 627T115 565Q115 529 140 504T202 478Z" />
<glyph unicode="&#xb1;" horiz-adv-x="600" d="M94 -1V76H506V-1H94ZM260 184V352H94V430H260V598H340V430H506V352H340V184H260Z" />
<glyph unicode="&#xb2;" horiz-adv-x="297" d="M26 350V397L164 520Q189 543 199 559T209 594Q209 618 191 633T144 649Q120 649 98 639T50 606L13 649Q44 677 77 691T146 705Q202 705 237 676T273 598Q273 568 258 542T205 482L119 405H277V350H26Z" />
<glyph unicode="&#xb3;" horiz-adv-x="319" d="M154 345Q113 345 78 359T17 399L61 440Q82 418 103 410T154 401Q187 401 207 415T227 452Q227 473 209 484T159 496H127V549H153Q180 549 198 564T216 601Q216 622 199 635T153 649Q126 649 107 640T64 607L20 648Q46
675 81 690T155 706Q211 706 247 679T282 608Q283 582 269 561T229 527Q258 517 276 496T294 447Q294 403 255 374T154 345Z" />
<glyph unicode="&#xb4;" horiz-adv-x="600" d="M229 603L321 725H441L313 603H229Z" />
<glyph unicode="&#xb5;" horiz-adv-x="577" d="M63 -204V509H162V204Q162 144 196 109T289 74Q330 74 361 92T414 145V509H514V0H414V69Q386 30 347 11T259 -9Q231 -9 207 -2T162 18V-204H63Z" />
<glyph unicode="&#xb6;" horiz-adv-x="671" d="M316 0V274H266Q198 274 146 301T64 375T34 485Q34 550 63 598T144 673T265 700H599V0H512V274H402V0H316ZM402 356H512V617H402V356ZM264 356H316V617H264Q202 617 164 582T125 487Q125 428 163 392T264 356Z" />
<glyph unicode="&#xb7;" horiz-adv-x="250" d="M125 220Q99 220 81 238T62 283Q62 310 80 328T125 347Q151 347 169 329T188 283Q188 257 170 239T125 220Z" />
<glyph unicode="&#xb8;" horiz-adv-x="600" d="M290 -231Q219 -231 172 -188L208 -150Q246 -181 289 -181Q318 -181 334 -169T350 -136Q350 -116 333 -105T286 -93H252L279 0H332L317 -51Q361 -54 386 -77T412 -136Q412 -177 378 -204T290 -231Z" />
<glyph unicode="&#xb9;" horiz-adv-x="177" d="M86 350V633L19 606V662L110 700H151V350H86Z" />
<glyph unicode="&#xba;" horiz-adv-x="472" d="M236 311Q180 311 135 337T62 409T35 511Q35 567 62 612T134 684T236 711Q292 711 337 685T410 613T437 511Q437 455 410 410T338 338T236 311ZM235 382Q270 382 297 399T340 445T356 510Q356 547 340 576T297 623T236
640Q202 640 175 623T131 577T115 510Q115 475 131 446T174 399T235 382Z" />
<glyph unicode="&#xbb;" horiz-adv-x="631" d="M367 509L605 254L367 0H263L495 252L260 509H367ZM142 509L380 254L142 0H38L270 252L35 509H142Z" />
<glyph unicode="&#xbc;" horiz-adv-x="629" d="M506 0V83H309V136L497 350H572V138H615V83H572V0H506ZM384 138H506V277L384 138ZM86 350V633L19 606V662L110 700H151V350H86ZM44 1L438 701H517L122 1H44Z" />
<glyph unicode="&#xbd;" horiz-adv-x="660" d="M86 350V633L19 606V662L110 700H151V350H86ZM44 0L438 700H517L122 0H44ZM388 0V47L526 170Q551 193 561 209T571 244Q571 268 553 283T506 299Q482 299 460 289T412 256L375 299Q406 327 439 341T508 355Q564 355
599 326T635 248Q635 218 620 192T567 132L481 55H639V0H388Z" />
<glyph unicode="&#xbe;" horiz-adv-x="722" d="M599 0V83H402V136L590 350H665V138H708V83H665V0H599ZM477 138H599V277L477 138ZM154 345Q113 345 78 359T17 399L61 440Q82 418 103 410T154 401Q187 401 207 415T227 452Q227 473 209 484T159 496H127V549H153Q180
549 198 564T216 601Q216 622 199 635T153 649Q126 649 107 640T64 607L20 648Q46 675 81 690T155 706Q211 706 247 679T282 608Q283 582 269 561T229 527Q258 517 276 496T294 447Q294 403 255 374T154 345ZM138 0L532 700H611L216 0H138Z" />
<glyph unicode="&#xbf;" horiz-adv-x="514" d="M326 292Q328 246 321 213T296 154T246 105L199 72Q160 44 144 21T128 -32Q128 -60 145 -81T192 -115T258 -128Q305 -128 346 -105T416 -40L495 -81Q469 -123 432 -153T349 -198T253 -214Q189 -214 139 -191T60 -127T30
-35Q30 -1 41 27T78 81T150 140L181 162Q216 185 230 215T241 292H326ZM283 504Q309 504 327 486T346 441Q346 415 328 397T283 378Q257 378 239 396T220 441Q220 467 238 485T283 504Z" />
<glyph unicode="&#xc0;" horiz-adv-x="701" d="M1 0L290 700H414L700 0H586L505 205H192L110 0H1ZM226 292H471L349 600L226 292ZM328 794L200 916H322L412 794H328Z" />
<glyph unicode="&#xc1;" horiz-adv-x="701" d="M1 0L290 700H414L700 0H586L505 205H192L110 0H1ZM226 292H471L349 600L226 292ZM280 794L372 916H492L364 794H280Z" />
<glyph unicode="&#xc2;" horiz-adv-x="701" d="M1 0L290 700H414L700 0H586L505 205H192L110 0H1ZM226 292H471L349 600L226 292ZM430 791L350 868L271 791H190L299 918H403L512 791H430Z" />
<glyph unicode="&#xc3;" horiz-adv-x="701" d="M1 0L290 700H414L700 0H586L505 205H192L110 0H1ZM226 292H471L349 600L226 292ZM238 786L172 799Q196 908 275 908Q302 908 328 895T377 869T421 855Q438 855 448 867T465 911L529 898Q518 843 492 816T427 789Q401
789 375 802T325 829T281 842Q263 842 254 829T238 786Z" />
<glyph unicode="&#xc4;" horiz-adv-x="701" d="M1 0L290 700H414L700 0H586L505 205H192L110 0H1ZM226 292H471L349 600L226 292ZM254 799Q229 799 212 815T195 857Q195 882 212 898T254 915Q279 915 296 899T313 857Q313 833 296 816T254 799ZM448 799Q423 799
406 815T389 857Q389 882 406 898T448 915Q473 915 490 899T507 857Q507 833 490 816T448 799Z" />
<glyph unicode="&#xc5;" horiz-adv-x="701" d="M1 0L290 700H414L700 0H586L505 205H192L110 0H1ZM226 292H471L349 600L226 292ZM351 775Q319 775 293 790T251 832T235 890Q235 921 250 947T292 989T351 1005Q383 1005 409 989T451 947T467 890Q467 859 452 833T410
791T351 775ZM351 823Q379 823 398 842T418 890Q418 918 399 937T351 957Q323 957 304 938T284 890Q284 862 303 843T351 823Z" />
<glyph unicode="&#xc6;" horiz-adv-x="965" d="M1 0L291 700H928V608H454L538 398H793V309H573L659 92H928V0H586L505 205H192L110 0H1ZM226 292H471L350 599L226 292Z" />
<glyph unicode="&#xc7;" horiz-adv-x="720" d="M392 -231Q320 -231 274 -188L310 -150Q347 -181 391 -181Q419 -181 435 -169T451 -136Q451 -116 434 -105T388 -93H353L378 -9Q306 -4 245 25T137 103T66 214T41 350Q41 426 68 491T146 606T264 683T408 711Q463
711 515 697T612 655T690 590L620 518Q581 565 525 589T408 614Q352 614 305 594T222 539T168 455T148 350Q148 294 167 246T223 162T307 106T411 86Q472 86 526 110T619 180L688 110Q640 57 573 26T430 -10L419 -51Q463 -54 488 -77T514 -136Q514 -177 479 -204T392
-231Z" />
<glyph unicode="&#xc8;" horiz-adv-x="628" d="M71 0V700H587V608H176V398H446V309H176V92H591V0H71ZM319 794L191 916H313L403 794H319Z" />
<glyph unicode="&#xc9;" horiz-adv-x="628" d="M71 0V700H587V608H176V398H446V309H176V92H591V0H71ZM271 794L363 916H483L355 794H271Z" />
<glyph unicode="&#xca;" horiz-adv-x="628" d="M71 0V700H587V608H176V398H446V309H176V92H591V0H71ZM421 791L341 868L262 791H181L290 918H394L503 791H421Z" />
<glyph unicode="&#xcb;" horiz-adv-x="628" d="M71 0V700H587V608H176V398H446V309H176V92H591V0H71ZM245 799Q220 799 203 815T186 857Q186 882 203 898T245 915Q270 915 287 899T304 857Q304 833 287 816T245 799ZM439 799Q414 799 397 815T380 857Q380 882
397 898T439 915Q464 915 481 899T498 857Q498 833 481 816T439 799Z" />
<glyph unicode="&#xcc;" horiz-adv-x="248" d="M71 0V700H176V0H71ZM101 794L-27 916H95L185 794H101Z" />
<glyph unicode="&#xcd;" horiz-adv-x="248" d="M71 0V700H176V0H71ZM53 794L145 916H265L137 794H53Z" />
<glyph unicode="&#xce;" horiz-adv-x="248" d="M71 0V700H176V0H71ZM203 791L123 868L44 791H-37L72 918H176L285 791H203Z" />
<glyph unicode="&#xcf;" horiz-adv-x="248" d="M71 0V700H176V0H71ZM27 799Q2 799 -15 815T-32 857Q-32 882 -15 898T27 915Q52 915 69 899T86 857Q86 833 69 816T27 799ZM221 799Q196 799 179 815T162 857Q162 882 179 898T221 915Q246 915 263 899T280 857Q280
833 263 816T221 799Z" />
<glyph unicode="&#xd0;" horiz-adv-x="755" d="M98 0V307H14V393H98V700H345Q424 700 491 674T608 600T685 489T713 350Q713 274 686 211T609 100T492 27T345 0H98ZM203 94H346Q401 94 448 113T531 167T586 248T606 349Q606 404 586 451T531 532T449 586T346 606H203V393H382V307H203V94Z"
/>
<glyph unicode="&#xd1;" horiz-adv-x="735" d="M71 0V700H173L564 180V700H663V0H571L171 536V0H71ZM254 786L188 799Q212 908 291 908Q318 908 344 895T393 869T437 855Q454 855 464 867T481 911L545 898Q534 843 508 816T443 789Q417 789 391 802T341 829T297
842Q279 842 270 829T254 786Z" />
<glyph unicode="&#xd2;" horiz-adv-x="810" d="M405 -11Q329 -11 263 16T147 93T69 208T41 350Q41 426 68 491T146 606T263 683T405 711Q481 711 547 684T664 607T742 492T770 350Q770 274 742 209T664 94T548 17T405 -11ZM406 86Q460 86 506 106T588 161T643
245T663 350Q663 407 643 455T588 538T507 594T406 614Q351 614 304 594T222 539T168 455T148 351Q148 294 167 246T222 162T304 106T406 86ZM383 794L255 916H377L467 794H383Z" />
<glyph unicode="&#xd3;" horiz-adv-x="810" d="M405 -11Q329 -11 263 16T147 93T69 208T41 350Q41 426 68 491T146 606T263 683T405 711Q481 711 547 684T664 607T742 492T770 350Q770 274 742 209T664 94T548 17T405 -11ZM406 86Q460 86 506 106T588 161T643
245T663 350Q663 407 643 455T588 538T507 594T406 614Q351 614 304 594T222 539T168 455T148 351Q148 294 167 246T222 162T304 106T406 86ZM335 794L427 916H547L419 794H335Z" />
<glyph unicode="&#xd4;" horiz-adv-x="810" d="M405 -11Q329 -11 263 16T147 93T69 208T41 350Q41 426 68 491T146 606T263 683T405 711Q481 711 547 684T664 607T742 492T770 350Q770 274 742 209T664 94T548 17T405 -11ZM406 86Q460 86 506 106T588 161T643
245T663 350Q663 407 643 455T588 538T507 594T406 614Q351 614 304 594T222 539T168 455T148 351Q148 294 167 246T222 162T304 106T406 86ZM485 791L405 868L326 791H245L354 918H458L567 791H485Z" />
<glyph unicode="&#xd5;" horiz-adv-x="810" d="M405 -11Q329 -11 263 16T147 93T69 208T41 350Q41 426 68 491T146 606T263 683T405 711Q481 711 547 684T664 607T742 492T770 350Q770 274 742 209T664 94T548 17T405 -11ZM406 86Q460 86 506 106T588 161T643
245T663 350Q663 407 643 455T588 538T507 594T406 614Q351 614 304 594T222 539T168 455T148 351Q148 294 167 246T222 162T304 106T406 86ZM293 786L227 799Q251 908 330 908Q357 908 383 895T432 869T476 855Q493 855 503 867T520 911L584 898Q573 843 547 816T482
789Q456 789 430 802T380 829T336 842Q318 842 309 829T293 786Z" />
<glyph unicode="&#xd6;" horiz-adv-x="810" d="M405 -11Q329 -11 263 16T147 93T69 208T41 350Q41 426 68 491T146 606T263 683T405 711Q481 711 547 684T664 607T742 492T770 350Q770 274 742 209T664 94T548 17T405 -11ZM406 86Q460 86 506 106T588 161T643
245T663 350Q663 407 643 455T588 538T507 594T406 614Q351 614 304 594T222 539T168 455T148 351Q148 294 167 246T222 162T304 106T406 86ZM309 799Q284 799 267 815T250 857Q250 882 267 898T309 915Q334 915 351 899T368 857Q368 833 351 816T309 799ZM503
799Q478 799 461 815T444 857Q444 882 461 898T503 915Q528 915 545 899T562 857Q562 833 545 816T503 799Z" />
<glyph unicode="&#xd7;" horiz-adv-x="600" d="M154 153L107 204L251 358L106 514L154 566L300 410L446 565L494 515L348 360L494 204L444 152L299 307L154 153Z" />
<glyph unicode="&#xd8;" horiz-adv-x="810" d="M406 -11Q349 -11 298 4T202 49L162 0H63L143 97Q95 146 68 211T41 350Q41 426 68 491T146 606T262 683T406 711Q461 711 511 696T603 654L641 700H742L664 606Q713 558 741 492T770 350Q770 274 742 209T664 94T548
17T406 -11ZM209 178L539 577Q510 595 477 604T406 614Q351 614 304 594T222 539T168 455T148 350Q148 300 164 256T209 178ZM406 86Q460 86 506 106T588 161T643 245T663 350Q663 402 646 447T599 526L267 126Q296 107 331 97T406 86Z" />
<glyph unicode="&#xd9;" horiz-adv-x="713" d="M356 -11Q265 -11 198 27T95 134T59 299V700H164V299Q164 234 187 186T254 112T356 86Q416 86 459 112T525 186T549 299V700H654V299Q654 204 618 135T514 27T356 -11ZM334 794L206 916H328L418 794H334Z" />
<glyph unicode="&#xda;" horiz-adv-x="713" d="M356 -11Q265 -11 198 27T95 134T59 299V700H164V299Q164 234 187 186T254 112T356 86Q416 86 459 112T525 186T549 299V700H654V299Q654 204 618 135T514 27T356 -11ZM285 794L377 916H497L369 794H285Z" />
<glyph unicode="&#xdb;" horiz-adv-x="713" d="M356 -11Q265 -11 198 27T95 134T59 299V700H164V299Q164 234 187 186T254 112T356 86Q416 86 459 112T525 186T549 299V700H654V299Q654 204 618 135T514 27T356 -11ZM435 791L355 868L276 791H195L304 918H408L517
791H435Z" />
<glyph unicode="&#xdc;" horiz-adv-x="713" d="M356 -11Q265 -11 198 27T95 134T59 299V700H164V299Q164 234 187 186T254 112T356 86Q416 86 459 112T525 186T549 299V700H654V299Q654 204 618 135T514 27T356 -11ZM259 799Q234 799 217 815T200 857Q200 882
217 898T259 915Q284 915 301 899T318 857Q318 833 301 816T259 799ZM453 799Q428 799 411 815T394 857Q394 882 411 898T453 915Q478 915 495 899T512 857Q512 833 495 816T453 799Z" />
<glyph unicode="&#xdd;" horiz-adv-x="666" d="M281 0V278L-1 700H121L336 371L551 700H668L386 276V0H281ZM263 794L355 916H475L347 794H263Z" />
<glyph unicode="&#xde;" horiz-adv-x="654" d="M71 0V700H176V564H396Q460 564 510 536T589 460T618 349Q618 289 589 241T510 165T396 137H176V0H71ZM176 226H384Q421 226 449 242T494 285T511 348Q511 384 495 412T450 456T384 472H176V226Z" />
<glyph unicode="&#xdf;" horiz-adv-x="652" d="M443 -11Q325 -11 240 70L295 126Q361 61 440 61Q487 61 514 80T542 131Q542 161 526 178T467 209L385 236Q326 256 301 281T276 344Q276 379 294 401T340 439T394 469T440 502T459 547Q459 587 420 612T318 637Q240
637 199 595T158 471V0H59V471Q59 588 127 653T316 718Q389 718 443 699T527 643T557 558Q557 518 538 492T492 447T437 416T391 390T372 357Q372 339 384 329T432 305L509 279Q576 256 605 224T634 139Q634 71 582 30T443 -11Z" />
<glyph unicode="&#xe0;" horiz-adv-x="532" d="M220 -9Q165 -9 123 10T57 65T33 146Q33 218 88 259T239 301Q314 301 378 272V326Q378 381 347 408T254 435Q219 435 181 425T96 392L59 467Q117 494 167 506T268 519Q367 519 421 472T476 338V0H378V44Q344 17 305
4T220 -9ZM129 148Q129 111 160 88T243 65Q283 65 316 77T378 114V200Q349 217 318 224T247 232Q192 232 161 210T129 148ZM491 603L363 725H485L575 603H491Z" />
<glyph unicode="&#xe1;" horiz-adv-x="532" d="M220 -9Q165 -9 123 10T57 65T33 146Q33 218 88 259T239 301Q314 301 378 272V326Q378 381 347 408T254 435Q219 435 181 425T96 392L59 467Q117 494 167 506T268 519Q367 519 421 472T476 338V0H378V44Q344 17 305
4T220 -9ZM129 148Q129 111 160 88T243 65Q283 65 316 77T378 114V200Q349 217 318 224T247 232Q192 232 161 210T129 148ZM443 603L535 725H655L527 603H443Z" />
<glyph unicode="&#xe2;" horiz-adv-x="532" d="M220 -9Q165 -9 123 10T57 65T33 146Q33 218 88 259T239 301Q314 301 378 272V326Q378 381 347 408T254 435Q219 435 181 425T96 392L59 467Q117 494 167 506T268 519Q367 519 421 472T476 338V0H378V44Q344 17 305
4T220 -9ZM129 148Q129 111 160 88T243 65Q283 65 316 77T378 114V200Q349 217 318 224T247 232Q192 232 161 210T129 148ZM593 600L513 677L434 600H353L462 727H566L675 600H593Z" />
<glyph unicode="&#xe3;" horiz-adv-x="532" d="M220 -9Q165 -9 123 10T57 65T33 146Q33 218 88 259T239 301Q314 301 378 272V326Q378 381 347 408T254 435Q219 435 181 425T96 392L59 467Q117 494 167 506T268 519Q367 519 421 472T476 338V0H378V44Q344 17 305
4T220 -9ZM129 148Q129 111 160 88T243 65Q283 65 316 77T378 114V200Q349 217 318 224T247 232Q192 232 161 210T129 148ZM401 596L335 609Q359 718 438 718Q465 718 491 705T540 679T584 665Q601 665 611 677T628 721L692 708Q681 653 655 626T590 599Q564 599
538 612T488 639T444 652Q426 652 417 639T401 596Z" />
<glyph unicode="&#xe4;" horiz-adv-x="532" d="M220 -9Q165 -9 123 10T57 65T33 146Q33 218 88 259T239 301Q314 301 378 272V326Q378 381 347 408T254 435Q219 435 181 425T96 392L59 467Q117 494 167 506T268 519Q367 519 421 472T476 338V0H378V44Q344 17 305
4T220 -9ZM129 148Q129 111 160 88T243 65Q283 65 316 77T378 114V200Q349 217 318 224T247 232Q192 232 161 210T129 148ZM417 608Q392 608 375 624T358 666Q358 691 375 707T417 724Q442 724 459 708T476 666Q476 642 459 625T417 608ZM611 608Q586 608 569 624T552
666Q552 691 569 707T611 724Q636 724 653 708T670 666Q670 642 653 625T611 608Z" />
<glyph unicode="&#xe5;" horiz-adv-x="532" d="M220 -9Q165 -9 123 10T57 65T33 146Q33 218 88 259T239 301Q314 301 378 272V326Q378 381 347 408T254 435Q219 435 181 425T96 392L59 467Q117 494 167 506T268 519Q367 519 421 472T476 338V0H378V44Q344 17 305
4T220 -9ZM129 148Q129 111 160 88T243 65Q283 65 316 77T378 114V200Q349 217 318 224T247 232Q192 232 161 210T129 148ZM514 584Q482 584 456 599T414 641T398 699Q398 730 413 756T455 798T514 814Q546 814 572 798T614 756T630 699Q630 668 615 642T573 600T514
584ZM514 632Q542 632 561 651T581 699Q581 727 562 746T514 766Q486 766 467 747T447 699Q447 671 466 652T514 632Z" />
<glyph unicode="&#xe6;" horiz-adv-x="915" d="M220 -9Q165 -9 124 10T59 65T36 146Q36 218 91 259T241 301Q315 301 378 274V326Q378 381 347 408T254 435Q219 435 181 425T96 392L59 467Q117 494 167 506T268 519Q335 519 381 497T449 432Q483 472 530 495T633
518Q703 518 758 483T846 387T879 250V222H478Q486 180 509 147T569 95T649 76Q686 76 720 87T778 121L842 58Q797 24 750 8T645 -9Q581 -9 528 17T437 87Q394 39 340 15T220 -9ZM479 297H780Q773 337 752 367T700 415T631 433Q593 433 561 416T508 369T479 297ZM243
65Q290 65 329 84T402 142Q396 155 392 169T383 199Q354 216 321 224T249 232Q195 232 163 210T131 148Q131 111 162 88T243 65Z" />
<glyph unicode="&#xe7;" horiz-adv-x="521" d="M283 -231Q212 -231 165 -188L202 -150Q239 -181 283 -181Q311 -181 327 -169T343 -136Q343 -116 326 -105T280 -93H245L270 -8Q203 -1 150 35T67 128T36 255Q36 329 71 388T165 483T298 519Q356 519 409 497T502
435L440 366Q411 398 375 414T300 430Q254 430 217 407T157 344T135 255Q135 206 157 166T217 102T302 79Q341 79 375 94T439 140L500 76Q464 40 419 19T323 -8L311 -51Q355 -54 380 -77T406 -136Q406 -177 371 -204T283 -231Z" />
<glyph unicode="&#xe8;" horiz-adv-x="573" d="M303 -9Q228 -9 168 26T72 121T36 255Q36 328 70 387T162 482T291 518Q362 518 417 483T504 387T537 250V222H136Q144 180 167 147T227 95T307 76Q344 76 378 87T436 121L500 58Q455 24 408 8T303 -9ZM137 297H438Q432
337 411 367T358 415T289 433Q251 433 219 416T166 369T137 297ZM523 603L395 725H517L607 603H523Z" />
<glyph unicode="&#xe9;" horiz-adv-x="573" d="M303 -9Q228 -9 168 26T72 121T36 255Q36 328 70 387T162 482T291 518Q362 518 417 483T504 387T537 250V222H136Q144 180 167 147T227 95T307 76Q344 76 378 87T436 121L500 58Q455 24 408 8T303 -9ZM137 297H438Q432
337 411 367T358 415T289 433Q251 433 219 416T166 369T137 297ZM475 603L567 725H687L559 603H475Z" />
<glyph unicode="&#xea;" horiz-adv-x="573" d="M303 -9Q228 -9 168 26T72 121T36 255Q36 328 70 387T162 482T291 518Q362 518 417 483T504 387T537 250V222H136Q144 180 167 147T227 95T307 76Q344 76 378 87T436 121L500 58Q455 24 408 8T303 -9ZM137 297H438Q432
337 411 367T358 415T289 433Q251 433 219 416T166 369T137 297ZM625 600L545 677L466 600H385L494 727H598L707 600H625Z" />
<glyph unicode="&#xeb;" horiz-adv-x="573" d="M303 -9Q228 -9 168 26T72 121T36 255Q36 328 70 387T162 482T291 518Q362 518 417 483T504 387T537 250V222H136Q144 180 167 147T227 95T307 76Q344 76 378 87T436 121L500 58Q455 24 408 8T303 -9ZM137 297H438Q432
337 411 367T358 415T289 433Q251 433 219 416T166 369T137 297ZM449 608Q424 608 407 624T390 666Q390 691 407 707T449 724Q474 724 491 708T508 666Q508 642 491 625T449 608ZM643 608Q618 608 601 624T584 666Q584 691 601 707T643 724Q668 724 685 708T702
666Q702 642 685 625T643 608Z" />
<glyph unicode="&#xec;" horiz-adv-x="218" d="M59 0V509H159V0H59ZM86 603L-42 725H80L170 603H86Z" />
<glyph unicode="&#xed;" horiz-adv-x="218" d="M59 0V509H159V0H59ZM38 603L130 725H250L122 603H38Z" />
<glyph unicode="&#xee;" horiz-adv-x="218" d="M59 0V509H159V0H59ZM188 600L108 677L29 600H-52L57 727H161L270 600H188Z" />
<glyph unicode="&#xef;" horiz-adv-x="218" d="M59 0V509H159V0H59ZM12 608Q-13 608 -30 624T-47 666Q-47 691 -30 707T12 724Q37 724 54 708T71 666Q71 642 54 625T12 608ZM206 608Q181 608 164 624T147 666Q147 691 164 707T206 724Q231 724 248 708T265 666Q265
642 248 625T206 608Z" />
<glyph unicode="&#xf0;" horiz-adv-x="600" d="M289 -10Q218 -10 161 24T70 116T37 246Q37 296 55 340T107 417T185 468T279 487Q334 487 377 465T448 403Q438 455 414 500T351 582L255 522L216 578L295 627Q274 643 250 654T198 673L245 743Q280 730 312 714T373
676L478 743L518 686L427 630Q489 568 521 485T554 300Q554 206 522 137T430 29T289 -10ZM292 79Q336 79 372 100T428 159T449 242Q449 287 429 323T372 381T292 403Q247 403 211 382T154 324T133 242Q133 196 154 159T211 101T292 79Z" />
<glyph unicode="&#xf1;" horiz-adv-x="567" d="M59 0V509H159V457Q218 519 312 519Q371 519 415 494T485 424T511 320V0H411V303Q411 363 378 397T284 432Q244 432 212 415T159 366V0H59ZM428 596L362 609Q386 718 465 718Q492 718 518 705T567 679T611 665Q628
665 638 677T655 721L719 708Q708 653 682 626T617 599Q591 599 565 612T515 639T471 652Q453 652 444 639T428 596Z" />
<glyph unicode="&#xf2;" horiz-adv-x="602" d="M301 -10Q227 -10 167 25T71 120T36 254Q36 328 71 388T166 483T301 519Q376 519 436 484T531 388T566 254Q566 180 531 120T436 25T301 -10ZM301 78Q348 78 386 101T446 165T468 255Q468 304 446 343T386 407T301
431Q254 431 217 407T157 344T134 255Q134 205 156 165T216 102T301 78ZM534 603L406 725H528L618 603H534Z" />
<glyph unicode="&#xf3;" horiz-adv-x="602" d="M301 -10Q227 -10 167 25T71 120T36 254Q36 328 71 388T166 483T301 519Q376 519 436 484T531 388T566 254Q566 180 531 120T436 25T301 -10ZM301 78Q348 78 386 101T446 165T468 255Q468 304 446 343T386 407T301
431Q254 431 217 407T157 344T134 255Q134 205 156 165T216 102T301 78ZM230 603L322 725H442L314 603H230Z" />
<glyph unicode="&#xf4;" horiz-adv-x="602" d="M301 -10Q227 -10 167 25T71 120T36 254Q36 328 71 388T166 483T301 519Q376 519 436 484T531 388T566 254Q566 180 531 120T436 25T301 -10ZM301 78Q348 78 386 101T446 165T468 255Q468 304 446 343T386 407T301
431Q254 431 217 407T157 344T134 255Q134 205 156 165T216 102T301 78ZM380 600L300 677L221 600H140L249 727H353L462 600H380Z" />
<glyph unicode="&#xf5;" horiz-adv-x="602" d="M301 -10Q227 -10 167 25T71 120T36 254Q36 328 71 388T166 483T301 519Q376 519 436 484T531 388T566 254Q566 180 531 120T436 25T301 -10ZM301 78Q348 78 386 101T446 165T468 255Q468 304 446 343T386 407T301
431Q254 431 217 407T157 344T134 255Q134 205 156 165T216 102T301 78ZM188 596L122 609Q146 718 225 718Q252 718 278 705T327 679T371 665Q388 665 398 677T415 721L479 708Q468 653 442 626T377 599Q351 599 325 612T275 639T231 652Q213 652 204 639T188 596Z"
/>
<glyph unicode="&#xf6;" horiz-adv-x="602" d="M301 -10Q227 -10 167 25T71 120T36 254Q36 328 71 388T166 483T301 519Q376 519 436 484T531 388T566 254Q566 180 531 120T436 25T301 -10ZM301 78Q348 78 386 101T446 165T468 255Q468 304 446 343T386 407T301
431Q254 431 217 407T157 344T134 255Q134 205 156 165T216 102T301 78ZM204 608Q179 608 162 624T145 666Q145 691 162 707T204 724Q229 724 246 708T263 666Q263 642 246 625T204 608ZM398 608Q373 608 356 624T339 666Q339 691 356 707T398 724Q423 724 440
708T457 666Q457 642 440 625T398 608Z" />
<glyph unicode="&#xf7;" horiz-adv-x="600" d="M300 492Q273 492 255 510T236 556Q236 583 254 602T300 621Q327 621 345 602T364 556Q364 530 346 511T300 492ZM300 96Q273 96 255 115T236 160Q236 187 254 206T300 225Q327 225 345 206T364 161Q364 134 346
115T300 96ZM94 319V397H506V319H94Z" />
<glyph unicode="&#xf8;" horiz-adv-x="602" d="M301 -10Q260 -10 223 1T155 33L127 0H50L109 70Q75 106 56 153T36 255Q36 329 71 389T166 484T301 519Q342 519 378 508T446 477L473 509H551L492 439Q526 404 545 357T565 255Q565 181 530 121T435 25T301 -10ZM170
145L388 406Q369 418 348 424T301 431Q254 431 216 408T156 345T134 255Q134 223 143 195T170 145ZM301 78Q348 78 386 101T445 165T467 255Q467 287 458 315T431 365L214 104Q232 92 254 85T301 78Z" />
<glyph unicode="&#xf9;" horiz-adv-x="567" d="M256 -10Q197 -10 152 15T82 85T57 190V509H156V207Q156 147 190 112T283 77Q324 77 356 94T408 144V509H508V0H408V52Q349 -10 256 -10ZM517 603L389 725H511L601 603H517Z" />
<glyph unicode="&#xfa;" horiz-adv-x="567" d="M256 -10Q197 -10 152 15T82 85T57 190V509H156V207Q156 147 190 112T283 77Q324 77 356 94T408 144V509H508V0H408V52Q349 -10 256 -10ZM468 603L560 725H680L552 603H468Z" />
<glyph unicode="&#xfb;" horiz-adv-x="567" d="M256 -10Q197 -10 152 15T82 85T57 190V509H156V207Q156 147 190 112T283 77Q324 77 356 94T408 144V509H508V0H408V52Q349 -10 256 -10ZM618 600L538 677L459 600H378L487 727H591L700 600H618Z" />
<glyph unicode="&#xfc;" horiz-adv-x="567" d="M256 -10Q197 -10 152 15T82 85T57 190V509H156V207Q156 147 190 112T283 77Q324 77 356 94T408 144V509H508V0H408V52Q349 -10 256 -10ZM442 608Q417 608 400 624T383 666Q383 691 400 707T442 724Q467 724 484
708T501 666Q501 642 484 625T442 608ZM636 608Q611 608 594 624T577 666Q577 691 594 707T636 724Q661 724 678 708T695 666Q695 642 678 625T636 608Z" />
<glyph unicode="&#xfd;" horiz-adv-x="537" d="M93 -215Q77 -215 63 -214T40 -209V-121Q58 -125 84 -125Q154 -125 185 -50L207 -1L3 509H114L262 121L426 509H534L288 -63Q264 -117 237 -150T175 -199T93 -215ZM450 603L542 725H662L534 603H450Z" />
<glyph unicode="&#xfe;" horiz-adv-x="609" d="M59 -206V700L159 722V461Q223 517 314 517Q386 517 444 482T537 388T571 255Q571 181 537 122T444 27T312 -8Q270 -8 231 5T159 44V-206H59ZM301 430Q258 430 221 414T159 369V139Q184 111 221 95T301 79Q350 79
388 102T450 164T473 254Q473 304 450 344T389 407T301 430Z" />
<glyph unicode="&#xff;" horiz-adv-x="537" d="M93 -215Q77 -215 63 -214T40 -209V-121Q58 -125 84 -125Q154 -125 185 -50L207 -1L3 509H114L262 121L426 509H534L288 -63Q264 -117 237 -150T175 -199T93 -215ZM424 608Q399 608 382 624T365 666Q365 691 382
707T424 724Q449 724 466 708T483 666Q483 642 466 625T424 608ZM618 608Q593 608 576 624T559 666Q559 691 576 707T618 724Q643 724 660 708T677 666Q677 642 660 625T618 608Z" />
<glyph unicode="&#x2013;" horiz-adv-x="552" d="M46 239V326H506V239H46Z" />
<glyph unicode="&#x2014;" horiz-adv-x="702" d="M46 239V326H656V239H46Z" />
<glyph unicode="&#x2018;" horiz-adv-x="250" d="M215 728L153 495H47L139 728H215Z" />
<glyph unicode="&#x2019;" horiz-adv-x="250" d="M45 496L107 729H213L121 496H45Z" />
<glyph unicode="&#x201a;" horiz-adv-x="250" d="M27 -143L89 90H195L103 -143H27Z" />
<glyph unicode="&#x201c;" horiz-adv-x="409" d="M215 728L153 495H47L139 728H215ZM374 728L312 495H206L298 728H374Z" />
<glyph unicode="&#x201d;" horiz-adv-x="409" d="M204 496L266 729H372L280 496H204ZM45 496L107 729H213L121 496H45Z" />
<glyph unicode="&#x201e;" horiz-adv-x="409" d="M186 -143L248 90H354L262 -143H186ZM27 -143L89 90H195L103 -143H27Z" />
<glyph unicode="&#x2022;" horiz-adv-x="339" d="M169 237Q140 237 115 251T76 290T62 343Q62 373 76 397T115 436T169 451Q199 451 223 437T262 398T277 343Q277 314 263 290T224 252T169 237Z" />
<glyph unicode="&#x2039;" horiz-adv-x="406" d="M264 0L26 255L264 509H368L136 257L371 0H264Z" />
<glyph unicode="&#x203a;" horiz-adv-x="406" d="M142 509L380 254L142 0H38L270 252L35 509H142Z" />
</font>
</defs>
</svg>
